<svg width="20" height="20" viewBox="0 0 20 20" xmlns="http://www.w3.org/2000/svg">
<path d="M9.75 0C4.37391 0 0 4.37391 0 9.75C0 15.1261 4.37391 19.5 9.75 19.5C15.1261 19.5 19.5 15.1261 19.5 9.75C19.5 4.37391 15.1261 0 9.75 0ZM13.5 10.5H10.5V13.5C10.5 13.6989 10.421 13.8897 10.2803 14.0303C10.1397 14.171 9.94891 14.25 9.75 14.25C9.55109 14.25 9.36032 14.171 9.21967 14.0303C9.07902 13.8897 9 13.6989 9 13.5V10.5H6C5.80109 10.5 5.61032 10.421 5.46967 10.2803C5.32902 10.1397 5.25 9.94891 5.25 9.75C5.25 9.55109 5.32902 9.36032 5.46967 9.21967C5.61032 9.07902 5.80109 9 6 9H9V6C9 5.80109 9.07902 5.61032 9.21967 5.46967C9.36032 5.32902 9.55109 5.25 9.75 5.25C9.94891 5.25 10.1397 5.32902 10.2803 5.46967C10.421 5.61032 10.5 5.80109 10.5 6V9H13.5C13.6989 9 13.8897 9.07902 14.0303 9.21967C14.171 9.36032 14.25 9.55109 14.25 9.75C14.25 9.94891 14.171 10.1397 14.0303 10.2803C13.8897 10.421 13.6989 10.5 13.5 10.5Z"/>
</svg>
