<svg width="18" height="18" viewBox="0 0 18 18" xmlns="http://www.w3.org/2000/svg">
<path d="M9.00134 18C10.9983 17.9997 12.9384 17.3353 14.5162 16.1114C16.0941 14.8874 17.2201 13.1735 17.717 11.2394C18.2138 9.30528 18.0534 7.26084 17.2608 5.42795C16.4682 3.59506 15.0886 2.0778 13.3391 1.11506C11.5896 0.152308 9.56955 -0.201253 7.59705 0.110036C5.62455 0.421325 3.81159 1.37978 2.44359 2.83452C1.07559 4.28925 0.230259 6.15764 0.0406664 8.14553C-0.148926 10.1334 0.327994 12.1279 1.39634 13.815L0.0013426 18L4.18634 16.605C5.62592 17.5187 7.2963 18.0026 9.00134 18Z"/>
</svg>
