<svg width="12" height="16" viewBox="0 0 12 16" xmlns="http://www.w3.org/2000/svg">
<path fill-rule="evenodd" clip-rule="evenodd" d="M6 0C4.93913 0 3.92172 0.421427 3.17157 1.17157C2.42143 1.92172 2 2.93913 2 4C2 5.06087 2.42143 6.07828 3.17157 6.82843C3.92172 7.57857 4.93913 8 6 8C7.06087 8 8.07828 7.57857 8.82843 6.82843C9.57857 6.07828 10 5.06087 10 4C10 2.93913 9.57857 1.92172 8.82843 1.17157C8.07828 0.421427 7.06087 0 6 0ZM4 9C2.93913 9 1.92172 9.42143 1.17157 10.1716C0.421427 10.9217 0 11.9391 0 13V14C0 14.5304 0.210714 15.0391 0.585786 15.4142C0.960859 15.7893 1.46957 16 2 16H10C10.5304 16 11.0391 15.7893 11.4142 15.4142C11.7893 15.0391 12 14.5304 12 14V13C12 11.9391 11.5786 10.9217 10.8284 10.1716C10.0783 9.42143 9.06087 9 8 9H4Z"/>
</svg>
