<svg width="26" height="26" viewBox="0 0 26 26" fill="none" xmlns="http://www.w3.org/2000/svg">
<path fill-rule="evenodd" clip-rule="evenodd" d="M22.048 11.3974L20.1885 16.9758C18.8774 20.909 18.2219 22.8756 17.2606 23.4344C16.3461 23.9661 15.2167 23.9661 14.3022 23.4344C13.3409 22.8756 12.6854 20.909 11.3743 16.9758C11.1638 16.3443 11.0585 16.0285 10.8818 15.7646C10.7106 15.5088 10.4909 15.2891 10.2351 15.1178C9.97116 14.9411 9.65539 14.8359 9.02386 14.6254C5.09067 13.3143 3.12408 12.6588 2.56523 11.6975C2.03359 10.783 2.03359 9.65356 2.56523 8.73907C3.12408 7.77778 5.09068 7.12225 9.02386 5.81119L14.6023 3.9517C19.4756 2.32729 21.9122 1.51508 23.1984 2.80129C24.4846 4.08749 23.6724 6.52412 22.048 11.3974ZM14.1327 11.8105C13.8171 11.4915 13.82 10.977 14.139 10.6615L18.7004 6.15037C19.0195 5.83484 19.5339 5.83769 19.8495 6.15674C20.165 6.4758 20.1622 6.99023 19.8431 7.30577L15.2817 11.8169C14.9626 12.1324 14.4482 12.1296 14.1327 11.8105Z" fill="white"/>
</svg>
