<svg width="22" height="18" viewBox="0 0 22 18" xmlns="http://www.w3.org/2000/svg">
<path d="M14.4 3.6C14.4 4.55478 14.0207 5.47045 13.3456 6.14559C12.6705 6.82072 11.7548 7.2 10.8 7.2C9.84522 7.2 8.92955 6.82072 8.25442 6.14559C7.57929 5.47045 7.2 4.55478 7.2 3.6C7.2 2.64522 7.57929 1.72955 8.25442 1.05442C8.92955 0.379285 9.84522 0 10.8 0C11.7548 0 12.6705 0.379285 13.3456 1.05442C14.0207 1.72955 14.4 2.64522 14.4 3.6ZM20.4 6C20.4 6.63652 20.1471 7.24697 19.6971 7.69706C19.247 8.14714 18.6365 8.4 18 8.4C17.3635 8.4 16.753 8.14714 16.3029 7.69706C15.8529 7.24697 15.6 6.63652 15.6 6C15.6 5.36348 15.8529 4.75303 16.3029 4.30294C16.753 3.85286 17.3635 3.6 18 3.6C18.6365 3.6 19.247 3.85286 19.6971 4.30294C20.1471 4.75303 20.4 5.36348 20.4 6ZM15.6 14.4C15.6 13.127 15.0943 11.9061 14.1941 11.0059C13.2939 10.1057 12.073 9.6 10.8 9.6C9.52696 9.6 8.30606 10.1057 7.40589 11.0059C6.50571 11.9061 6 13.127 6 14.4V18H15.6V14.4ZM6 6C6 6.63652 5.74714 7.24697 5.29706 7.69706C4.84697 8.14714 4.23652 8.4 3.6 8.4C2.96348 8.4 2.35303 8.14714 1.90294 7.69706C1.45286 7.24697 1.2 6.63652 1.2 6C1.2 5.36348 1.45286 4.75303 1.90294 4.30294C2.35303 3.85286 2.96348 3.6 3.6 3.6C4.23652 3.6 4.84697 3.85286 5.29706 4.30294C5.74714 4.75303 6 5.36348 6 6ZM18 18V14.4C18.0017 13.1799 17.692 11.9796 17.1 10.9128C17.632 10.7767 18.1881 10.7638 18.7258 10.8753C19.2636 10.9867 19.7687 11.2195 20.2028 11.5559C20.6369 11.8923 20.9884 12.3234 21.2306 12.8163C21.4727 13.3092 21.5991 13.8508 21.6 14.4V18H18ZM4.5 10.9128C3.9081 11.9797 3.59832 13.1799 3.6 14.4V18H3.18864e-07V14.4C-0.000230962 13.8504 0.125356 13.3081 0.367137 12.8146C0.608917 12.3211 0.960473 11.8895 1.39486 11.5529C1.82925 11.2163 2.33494 10.9836 2.87317 10.8726C3.41141 10.7617 3.9679 10.7754 4.5 10.9128Z"/>
</svg>
